<?xml version="1.0" standalone="no"?>
<!DOCTYPE svg PUBLIC "-//W3C//DTD SVG 20010904//EN"
 "http://www.w3.org/TR/2001/REC-SVG-20010904/DTD/svg10.dtd">
<svg version="1.0" xmlns="http://www.w3.org/2000/svg"
 width="300.000000pt" height="300.000000pt" viewBox="0 0 300.000000 300.000000"
 preserveAspectRatio="xMidYMid meet">

<g transform="translate(0.000000,300.000000) scale(0.100000,-0.100000)"
fill="#000000" stroke="none">
<path d="M1816 2315 c-4 -14 -17 -30 -29 -35 -12 -5 -76 -30 -142 -55 -166
-64 -367 -157 -512 -237 -67 -37 -127 -68 -132 -68 -6 0 -11 11 -11 25 0 14
-4 25 -9 25 -15 0 -29 -53 -20 -78 15 -39 41 -34 154 32 50 29 104 60 120 68
17 8 39 19 50 26 11 6 52 25 90 43 175 79 219 98 275 119 19 7 49 19 67 26 17
8 38 14 45 14 26 0 77 30 83 50 7 21 -4 70 -15 70 -4 0 -11 -11 -14 -25z"/>
<path d="M2170 1668 c0 -15 -5 -30 -10 -33 -6 -4 -63 -15 -128 -25 -337 -54
-508 -94 -837 -196 -139 -43 -391 -138 -502 -189 -42 -19 -84 -35 -93 -35 -21
0 -32 23 -23 48 5 15 4 15 -10 2 -24 -22 -31 -71 -14 -94 24 -33 45 -28 233
60 28 13 77 33 110 45 32 12 64 25 69 29 6 4 24 11 42 15 18 3 49 15 70 25 21
9 54 21 73 24 19 4 44 11 55 16 23 10 129 41 265 77 52 13 120 31 150 40 30 8
69 17 85 20 17 2 39 8 50 13 28 12 66 20 175 36 213 31 246 37 258 46 16 14
15 58 -3 82 -14 19 -15 19 -15 -6z"/>
<path d="M1652 1418 c-24 -24 -10 -61 90 -240 56 -101 107 -195 115 -209 26
-52 47 -62 124 -60 40 1 77 5 83 9 15 9 106 20 281 33 83 6 160 15 172 21 32
16 37 42 16 80 l-18 33 -3 -32 c-4 -37 -8 -39 -117 -47 -155 -12 -303 -27
-348 -36 -26 -6 -65 -10 -87 -10 -41 0 -43 3 -98 100 -10 19 -56 99 -101 177
-44 77 -81 150 -81 162 0 25 -13 34 -28 19z"/>
<path d="M1250 1303 c0 -16 -36 -84 -125 -238 -114 -198 -158 -271 -168 -277
-7 -4 -48 -16 -92 -27 -190 -47 -532 -153 -583 -180 -10 -5 -24 -6 -30 -2 -15
9 -19 57 -8 91 8 21 7 22 -6 10 -17 -18 -48 -83 -48 -102 0 -53 74 -80 136
-49 85 42 454 158 556 176 56 9 105 32 123 57 9 13 57 95 107 183 50 88 108
189 128 225 45 78 53 103 45 130 -8 25 -35 27 -35 3z"/>
<path d="M93 372 c-17 -20 -23 -40 -23 -78 0 -72 36 -119 105 -134 36 -8 426
-10 1355 -8 1275 3 1306 3 1337 23 61 36 77 104 43 185 l-19 45 -1 -40 c-1
-71 -8 -85 -46 -85 -19 0 -34 -4 -34 -10 0 -6 -132 -10 -375 -10 -242 0 -375
4 -375 10 0 6 -336 11 -972 12 l-973 3 0 58 c0 31 0 57 0 57 0 0 -10 -13 -22
-28z"/>
</g>
</svg>
